<svg id="Camada_1" data-name="Camada 1" xmlns="http://www.w3.org/2000/svg" viewBox="0 0 68.19 40.39"><defs><style>.cls-1{fill:none;stroke:#231f20;stroke-linecap:round;stroke-linejoin:round;stroke-width:0.81px;}.cls-2{fill:#231f20;}</style></defs><path class="cls-1" d="M406.12,379.26c-.61.42-2.05,3.6-3,4.87s-3.07,4.09-3.85,5.11-2.09,3.65-4.58,4.43-4.48,1.32-6.18-.24-2.78-5.5-3.7-6.92-.88-2.24-2.24-1.75-.93,1.49-.39,2.08a69.31,69.31,0,0,1,3.16,6.25c.59,1.21,1.8,3.45,5.8,3.5s7-1.8,8.28-3.7a31.09,31.09,0,0,1,3.75-5,20.8,20.8,0,0,0,3.21-5c.24-.78,1.17-2.34,1.17-2.73A1,1,0,0,0,406.12,379.26Z" transform="translate(-375.26 -378.73)"/><path class="cls-1" d="M382.21,386.84a20.25,20.25,0,0,0,0,4.3,5.48,5.48,0,0,1,.44,2,4.43,4.43,0,0,0-.12,1.41c.07.2-.3.86-.15.94" transform="translate(-375.26 -378.73)"/><path class="cls-1" d="M385.88,396a20.07,20.07,0,0,1-.65,6.08c-.48.88-.72.37-1.17.32s-2.95-.8-4.26-1a10,10,0,0,1-1.63-.3c-.4-.1-1-1.25-1.5-1.68s.37-1.29.37-1.82,0-1.23.46-1.45,1.39-.61,1.44-1,.83-.21,1.37-.16,1.93.54,3.16.67S385.61,395.62,385.88,396Z" transform="translate(-375.26 -378.73)"/><path class="cls-1" d="M380.92,401.6a1.36,1.36,0,0,0-.58,1c0,.36-.54.81-.39,1a.94.94,0,0,1,0,.74,1.22,1.22,0,0,0,0,1,1.62,1.62,0,0,1,.18.95,1.9,1.9,0,0,0-.94.29c-.48.31-3,3-3.39,5.23-.32,2,0,4.62,3.54,5.63.85.1,1-.06,1-.06" transform="translate(-375.26 -378.73)"/><path class="cls-1" d="M379.78,407a13.51,13.51,0,0,0-3.09,4.52c-.59,1.58-.77,5.32,4.74,6.16,0,0,15.87.12,23.59,0s12,1.35,19.06.95,16.85-3.55,18.17-5.45.88-4.75-.39-5.6c-.57-.39-.29,1.22.09,1.18a5.78,5.78,0,0,1,.3,2.24" transform="translate(-375.26 -378.73)"/><path class="cls-1" d="M381.1,407.08c-1.06,1-3.07,3.39-3.44,5.44s.66,3.61,3.09,3.83c1.86.18,4.71.15,9.64.32s12.3-.22,18.4.06,18.17,1.13,24.63-.93c5-1.61,7.64-2.77,8.11-2.93s1.12-2.55.37-2.28c-1.13.41-5.11.83-7.4,1.28s-10.81.71-18.91.43c-7.15-.25-25.54-4.17-28.63-4.78s-6.35-1.24-6.86-1.21" transform="translate(-375.26 -378.73)"/><path class="cls-1" d="M382.56,407.34c-1.27,1.39-4.54,4.54-2.65,8.84" transform="translate(-375.26 -378.73)"/><path class="cls-1" d="M384.53,407.77c-1.07,1.37-3.63,5.66-1.85,8.73" transform="translate(-375.26 -378.73)"/><path class="cls-1" d="M387,408.22c-1,1.84-3.06,6-1.86,8.45" transform="translate(-375.26 -378.73)"/><path class="cls-1" d="M389.52,408.88c-.94,1.8-2.45,4.76-1.74,7.92" transform="translate(-375.26 -378.73)"/><path class="cls-1" d="M391.69,409.31c-1.08,2.5-2,4.33-1.69,7.49" transform="translate(-375.26 -378.73)"/><path class="cls-1" d="M393.91,409.55c-.9,1.93-2.17,4.51-1.51,7.42" transform="translate(-375.26 -378.73)"/><path class="cls-1" d="M396.08,410.06c-.66,1.65-1.84,4.58-1.37,6.91" transform="translate(-375.26 -378.73)"/><path class="cls-1" d="M398.11,410.45c-.41,1.1-1.48,4-1.07,6.49" transform="translate(-375.26 -378.73)"/><path class="cls-1" d="M400.21,410.92a15.61,15.61,0,0,0-.91,6" transform="translate(-375.26 -378.73)"/><path class="cls-1" d="M402.25,411.2a26.65,26.65,0,0,0-.76,5.66" transform="translate(-375.26 -378.73)"/><path class="cls-1" d="M404.41,411.72a27.12,27.12,0,0,0-.75,5.12" transform="translate(-375.26 -378.73)"/><path class="cls-1" d="M406.39,412.05a28,28,0,0,0-.63,4.75" transform="translate(-375.26 -378.73)"/><path class="cls-1" d="M408.34,412.37a33.42,33.42,0,0,0-.63,4.52" transform="translate(-375.26 -378.73)"/><path class="cls-1" d="M410.38,412.68a26.12,26.12,0,0,0-.46,4.3" transform="translate(-375.26 -378.73)"/><path class="cls-1" d="M412.43,413.06c-.14,1.15-.54,3.69-.54,4" transform="translate(-375.26 -378.73)"/><path class="cls-1" d="M414.56,413.2c-.09,1-.47,3.91-.47,3.91" transform="translate(-375.26 -378.73)"/><path class="cls-1" d="M416.33,413.32c0,.47-.19,3.81-.19,3.81" transform="translate(-375.26 -378.73)"/><path class="cls-1" d="M418.39,413.32c.05.63,0,3.28,0,3.79" transform="translate(-375.26 -378.73)"/><path class="cls-1" d="M420.4,413.32a29,29,0,0,1,.28,3.77" transform="translate(-375.26 -378.73)"/><path class="cls-1" d="M422.71,413.2a18.76,18.76,0,0,1,.38,3.78" transform="translate(-375.26 -378.73)"/><path class="cls-1" d="M425.12,413.2a19.28,19.28,0,0,1,.45,3.65" transform="translate(-375.26 -378.73)"/><path class="cls-1" d="M427.53,413.2a13,13,0,0,1,.61,3.4" transform="translate(-375.26 -378.73)"/><path class="cls-1" d="M430,413a11.58,11.58,0,0,1,.4,2.84" transform="translate(-375.26 -378.73)"/><path class="cls-1" d="M432.31,412.68a8.58,8.58,0,0,1,.44,2.53" transform="translate(-375.26 -378.73)"/><path class="cls-1" d="M434.72,412.42a5.41,5.41,0,0,1,.35,2.1" transform="translate(-375.26 -378.73)"/><path class="cls-1" d="M437,412.11a3.33,3.33,0,0,1,.33,1.73" transform="translate(-375.26 -378.73)"/><path class="cls-1" d="M439.06,411.85a1.84,1.84,0,0,1,.29,1.35" transform="translate(-375.26 -378.73)"/><path class="cls-1" d="M440.86,411.5a1.43,1.43,0,0,1,.28,1" transform="translate(-375.26 -378.73)"/><path class="cls-1" d="M382.84,416.9a4.22,4.22,0,0,0,.36.81" transform="translate(-375.26 -378.73)"/><path class="cls-1" d="M385.33,417.05c.08.3.33.66.58.67" transform="translate(-375.26 -378.73)"/><path class="cls-1" d="M387.9,417.14c.08.29.29.57.54.58" transform="translate(-375.26 -378.73)"/><path class="cls-1" d="M390.06,417.28c.06.29.41.44.66.46" transform="translate(-375.26 -378.73)"/><path class="cls-1" d="M392.46,417.26c0,.36.39.47.64.48" transform="translate(-375.26 -378.73)"/><path class="cls-1" d="M394.74,417.26c0,.36.4.47.65.48" transform="translate(-375.26 -378.73)"/><path class="cls-1" d="M397.07,417.26c0,.36.39.47.64.48" transform="translate(-375.26 -378.73)"/><path class="cls-1" d="M399.26,417.26c0,.36.53.46.78.48" transform="translate(-375.26 -378.73)"/><path class="cls-1" d="M401.48,417.26c0,.36.63.47.94.46" transform="translate(-375.26 -378.73)"/><path class="cls-1" d="M403.66,417.26c0,.36.44.45.75.44" transform="translate(-375.26 -378.73)"/><path class="cls-1" d="M405.76,417.26c0,.36.58.44.89.43" transform="translate(-375.26 -378.73)"/><path class="cls-1" d="M407.71,417.26c0,.36.49.49.81.49" transform="translate(-375.26 -378.73)"/><path class="cls-1" d="M409.92,417.26a.64.64,0,0,0,.63.61" transform="translate(-375.26 -378.73)"/><path class="cls-1" d="M411.89,417.41a.67.67,0,0,0,.63.63" transform="translate(-375.26 -378.73)"/><path class="cls-1" d="M414.09,417.57a.75.75,0,0,0,.63.7" transform="translate(-375.26 -378.73)"/><path class="cls-1" d="M416.14,417.73a.79.79,0,0,0,.63.74" transform="translate(-375.26 -378.73)"/><path class="cls-1" d="M418.42,417.92a.86.86,0,0,0,.71.72" transform="translate(-375.26 -378.73)"/><path class="cls-1" d="M420.69,417.92a.83.83,0,0,0,.76.79" transform="translate(-375.26 -378.73)"/><path class="cls-1" d="M423.1,417.92a.71.71,0,0,0,.81.73" transform="translate(-375.26 -378.73)"/><path class="cls-1" d="M425.57,417.63a.81.81,0,0,0,.91.79" transform="translate(-375.26 -378.73)"/><path class="cls-1" d="M428.14,417.24c0,.46.46.86,1.19.72" transform="translate(-375.26 -378.73)"/><path class="cls-1" d="M430.37,416.76c0,.46.46.86,1.19.73" transform="translate(-375.26 -378.73)"/><path class="cls-1" d="M432.76,416.25c0,.46.59.8,1.31.6" transform="translate(-375.26 -378.73)"/><path class="cls-1" d="M435.09,415.54c0,.46.41.86,1.12.66" transform="translate(-375.26 -378.73)"/><path class="cls-1" d="M437.31,414.78c0,.46.36.91,1.24.57" transform="translate(-375.26 -378.73)"/><path class="cls-1" d="M439.34,414.1c0,.46.22.73,1.1.39" transform="translate(-375.26 -378.73)"/><path class="cls-1" d="M441.16,413.29c0,.46.19.87,1,0" transform="translate(-375.26 -378.73)"/><path class="cls-1" d="M441.86,407.59c-.41-.67-.75-.39-.85-.79s.09-.4-.39-.57-.41-.34-.53-.58-.36,0-.59-.33-.2-.6-.51-.65-.55.15-.78-.18-.36-.65-.7-.72-.43.14-.76,0-.51-.48-.74-.5-.48.21-.77.12a6.15,6.15,0,0,0-1.38-.57c-.67-.1-.6.23-.91.09s-.46-.46-.7-.52-.43.13-.67,0-.16-.37-.37-.37-.43.15-.6,0-.24-.35-.5-.33-.41.14-.55,0-.39-.48-.6-.45a.59.59,0,0,1-.53-.16.67.67,0,0,0-.6-.18c-.24.05-.23-.22-.36-.24s-.13.22-.54,0-.39-.24-.65-.24-.31-.33-.48-.38-.23.08-.38,0-.26-.28-.4-.35-.29.26-.39.13,0-.33-.23-.4-.34.1-.44,0-.26-.39-.51-.49" transform="translate(-375.26 -378.73)"/><path class="cls-1" d="M422.55,399.88c.12.12,1.05.06.87-1.42s-1.49-.7-1.49-.7a1.25,1.25,0,0,1,.32.78C422.32,399.11,422.32,399.65,422.55,399.88Z" transform="translate(-375.26 -378.73)"/><path class="cls-1" d="M421.93,397.76c-.34-.56-.7-1.76-2.28-1.55a5.77,5.77,0,0,1,1.2,2.67,25,25,0,0,1,0,2.93c.1.55.4.76,1.1.58.86-.23.59-2.19.55-2.63" transform="translate(-375.26 -378.73)"/><path class="cls-1" d="M416.69,392.87a6.51,6.51,0,0,1-.5,3.5c-.49,1.42-1.31,2.95-1.31,3.24s.85.94,1.27.43a14.93,14.93,0,0,0,1.42-3.85c.22-1,.68-2.4,0-3S416.69,392.87,416.69,392.87Z" transform="translate(-375.26 -378.73)"/><path class="cls-1" d="M419.65,396.21c-.51,0-1.31.8-1.61.94s-.64-.27-.6-.43" transform="translate(-375.26 -378.73)"/><path class="cls-1" d="M420.8,396.36c0-.4-.33-1.64-1.6-1.29a2.54,2.54,0,0,0-1.61,1" transform="translate(-375.26 -378.73)"/><path class="cls-1" d="M417.93,394.51c.16.21.69.77.69.77" transform="translate(-375.26 -378.73)"/><path class="cls-1" d="M409.62,397.17c-.08-.39,2.22-3.08,2.59-3.68s2.2-2.66,2.21-3.35a1,1,0,0,0-.4-.67,1.35,1.35,0,0,1,.86.25,1.05,1.05,0,0,1,.53,1.09c-.1.38-2,3.4-2.46,4.09s-1.73,2.81-2.16,2.94A.88.88,0,0,1,409.62,397.17Z" transform="translate(-375.26 -378.73)"/><path class="cls-1" d="M413.61,393.88c.25.11.86-.37,1-.46s1.62-1,2.07-.55" transform="translate(-375.26 -378.73)"/><path class="cls-1" d="M417,392.84c.06-.52-.25-1.31-.76-1.33a2.31,2.31,0,0,0-1.27.23" transform="translate(-375.26 -378.73)"/><line class="cls-1" x1="40.92" y1="14.04" x2="41.52" y2="14.6"/><line class="cls-1" x1="39.94" y1="12.51" x2="40.17" y2="12.83"/><path class="cls-1" d="M404.29,394.19c-.15-.86,1.82-3.79,3.83-5.59s3.23-2.94,3.6-3.15,1.89-.17.72,1.72c.09-.93-1.93.9-3.59,2.87s-2.81,4.61-3.44,4.75S404.29,394.19,404.29,394.19Z" transform="translate(-375.26 -378.73)"/><path class="cls-1" d="M408.85,390c.87-.27,5.46-2.15,5.17-.57.86-.63.35-2.2-1.15-2a10,10,0,0,0-2,.37" transform="translate(-375.26 -378.73)"/><line class="cls-1" x1="37.17" y1="8.44" x2="37.39" y2="8.79"/><path class="cls-1" d="M407.51,380.5c.3,0,.18.51.49.57a.78.78,0,0,1,.68.7c0,.43.22.57.47.57s.37.17.47.41-.06.68.29.83.64.35.64.69-.07.7.24.81.39.2.49.41,0,.29,0,.29" transform="translate(-375.26 -378.73)"/><path class="cls-2" d="M377,397.45l.42,0a.1.1,0,0,1,.09.12l0,.43a.11.11,0,0,1-.11.09h-.54" transform="translate(-375.26 -378.73)"/><path class="cls-2" d="M377.84,397.55a1.57,1.57,0,0,0,0,.63c0,.1.52.1.58.06a1.36,1.36,0,0,0,.07-.6A1.62,1.62,0,0,0,377.84,397.55Z" transform="translate(-375.26 -378.73)"/><path class="cls-2" d="M378.85,397.78a1.15,1.15,0,0,0-.08.58c0,.11.61.13.68.1a1.13,1.13,0,0,0,.11-.6A2.13,2.13,0,0,0,378.85,397.78Z" transform="translate(-375.26 -378.73)"/><path class="cls-2" d="M380,397.93a1.2,1.2,0,0,0-.06.58c0,.1.62.1.69.07a1.08,1.08,0,0,0,.08-.56A2.13,2.13,0,0,0,380,397.93Z" transform="translate(-375.26 -378.73)"/><path class="cls-2" d="M381.2,398.21a1,1,0,0,0-.08.51c0,.09.61.12.68.09s.14-.48.11-.52A2.81,2.81,0,0,0,381.2,398.21Z" transform="translate(-375.26 -378.73)"/><path class="cls-2" d="M382.38,398.4a1.08,1.08,0,0,0-.07.5c0,.1.48.12.53.09a1.14,1.14,0,0,0,.09-.52A1.46,1.46,0,0,0,382.38,398.4Z" transform="translate(-375.26 -378.73)"/><path class="cls-2" d="M383.27,398.56a1.55,1.55,0,0,0-.06.51c0,.09.38.11.42.08a1.14,1.14,0,0,0,.08-.52A1.1,1.1,0,0,0,383.27,398.56Z" transform="translate(-375.26 -378.73)"/><path class="cls-2" d="M384,398.71a1.46,1.46,0,0,0-.06.5c0,.09.38.11.43.08a1.49,1.49,0,0,0,.08-.52A1,1,0,0,0,384,398.71Z" transform="translate(-375.26 -378.73)"/><path class="cls-2" d="M384.89,398.75a1,1,0,0,0-.08.5c0,.09.54.12.61.09a.93.93,0,0,0,.09-.52A1.85,1.85,0,0,0,384.89,398.75Z" transform="translate(-375.26 -378.73)"/><path class="cls-2" d="M393.31,399c-.1,0-.25-.15-.35-.14s-.37.28-.37.28a2.23,2.23,0,0,0,.23.27,2.33,2.33,0,0,0,.49.12s-.25-.33-.25-.33Z" transform="translate(-375.26 -378.73)"/><path class="cls-2" d="M393.31,399.57a.78.78,0,0,0-.35-.1c-.11,0-.37.27-.37.27a2.21,2.21,0,0,0,.23.28,3.17,3.17,0,0,0,.49.12s-.25-.34-.25-.34Z" transform="translate(-375.26 -378.73)"/><path class="cls-2" d="M393.25,400.24a.77.77,0,0,0-.34-.14c-.11,0-.4.23-.4.23a2.25,2.25,0,0,0,.2.34,2,2,0,0,0,.48.09s-.21-.32-.21-.32Z" transform="translate(-375.26 -378.73)"/><path class="cls-2" d="M393.6,402a.69.69,0,0,0-.36-.11c-.1,0-.37.26-.37.26a1.64,1.64,0,0,0,.23.32,2.09,2.09,0,0,0,.49.05s-.25-.3-.25-.3Z" transform="translate(-375.26 -378.73)"/><path class="cls-2" d="M394,402a.94.94,0,0,0-.36-.11c-.1,0-.37.27-.37.27a2.06,2.06,0,0,0,.22.32,3,3,0,0,0,.5.05s-.25-.3-.25-.3Z" transform="translate(-375.26 -378.73)"/><path class="cls-2" d="M398.92,400.64a.81.81,0,0,0-.36-.12,1.61,1.61,0,0,0-.37.27,1.64,1.64,0,0,0,.23.32,2.09,2.09,0,0,0,.49.05s-.25-.3-.25-.3Z" transform="translate(-375.26 -378.73)"/><path class="cls-2" d="M399.36,400.67a.79.79,0,0,0-.36-.11c-.1,0-.37.27-.37.27a2.06,2.06,0,0,0,.22.32,4.7,4.7,0,0,0,.5.05s-.25-.3-.25-.3Z" transform="translate(-375.26 -378.73)"/><path class="cls-2" d="M394.61,401.59a.91.91,0,0,0-.35-.09,1.27,1.27,0,0,0-.37.22,2,2,0,0,0,.22.27,2.77,2.77,0,0,0,.49,0s-.24-.25-.24-.25Z" transform="translate(-375.26 -378.73)"/><path class="cls-2" d="M395.56,401.59a.91.91,0,0,0-.35-.09,1.27,1.27,0,0,0-.37.22,2,2,0,0,0,.22.27,2.77,2.77,0,0,0,.49,0s-.24-.25-.24-.25Z" transform="translate(-375.26 -378.73)"/><path class="cls-2" d="M394.65,400.92a.89.89,0,0,0-.39-.06,1.25,1.25,0,0,0-.37.23,2,2,0,0,0,.22.27c.05,0,.45,0,.49,0s-.24-.26-.24-.26Z" transform="translate(-375.26 -378.73)"/><path class="cls-2" d="M394.67,400.47a1.14,1.14,0,0,0-.36-.1,1.4,1.4,0,0,0-.37.23,2.23,2.23,0,0,0,.23.27,2.77,2.77,0,0,0,.49,0s-.25-.25-.25-.25Z" transform="translate(-375.26 -378.73)"/><path class="cls-2" d="M395.75,400.94a1.07,1.07,0,0,0-.4-.05c-.1,0-.37.22-.37.22a2,2,0,0,0,.22.27,3,3,0,0,0,.5,0s-.25-.25-.25-.25Z" transform="translate(-375.26 -378.73)"/><path class="cls-2" d="M395.76,400.49a.91.91,0,0,0-.35-.09,1.27,1.27,0,0,0-.37.22,2,2,0,0,0,.22.27,2.77,2.77,0,0,0,.49,0s-.24-.25-.24-.25Z" transform="translate(-375.26 -378.73)"/><path class="cls-2" d="M398.49,399.94a1,1,0,0,0-.39-.06,1.25,1.25,0,0,0-.37.23,2,2,0,0,0,.22.27,4.22,4.22,0,0,0,.49,0s-.24-.26-.24-.26Z" transform="translate(-375.26 -378.73)"/><path class="cls-2" d="M398.51,399.49a1.15,1.15,0,0,0-.35-.1,1.33,1.33,0,0,0-.38.23,2.23,2.23,0,0,0,.23.27,2.77,2.77,0,0,0,.49,0s-.24-.25-.24-.25Z" transform="translate(-375.26 -378.73)"/><path class="cls-2" d="M402.91,399.91a1,1,0,0,0-.39-.05,1.27,1.27,0,0,0-.37.22,2,2,0,0,0,.22.27,2.77,2.77,0,0,0,.49,0s-.24-.25-.24-.25Z" transform="translate(-375.26 -378.73)"/><path class="cls-2" d="M402.93,399.46a.91.91,0,0,0-.35-.09,1.35,1.35,0,0,0-.38.22,1.66,1.66,0,0,0,.23.27,2.77,2.77,0,0,0,.49,0s-.24-.25-.24-.25Z" transform="translate(-375.26 -378.73)"/><path class="cls-2" d="M405,400a1.08,1.08,0,0,0-.4-.06,1.4,1.4,0,0,0-.37.23,1.58,1.58,0,0,0,.23.27,2.77,2.77,0,0,0,.49,0s-.25-.25-.25-.25Z" transform="translate(-375.26 -378.73)"/><path class="cls-2" d="M405,399.54a.86.86,0,0,0-.35-.09,1.27,1.27,0,0,0-.37.22,2,2,0,0,0,.22.27,2.77,2.77,0,0,0,.49,0s-.24-.25-.24-.25Z" transform="translate(-375.26 -378.73)"/><path class="cls-2" d="M403.29,401a1.34,1.34,0,0,0-.4-.06,1.4,1.4,0,0,0-.37.23,1.58,1.58,0,0,0,.23.27,2.77,2.77,0,0,0,.49,0s-.25-.25-.25-.25Z" transform="translate(-375.26 -378.73)"/><path class="cls-2" d="M403.3,400.58a.82.82,0,0,0-.35-.09,1.42,1.42,0,0,0-.37.22,2,2,0,0,0,.22.27,2.93,2.93,0,0,0,.49,0s-.24-.25-.24-.25Z" transform="translate(-375.26 -378.73)"/><path class="cls-2" d="M403.57,402.15a1.07,1.07,0,0,0-.4,0,1.4,1.4,0,0,0-.37.23,1.58,1.58,0,0,0,.23.27,4.15,4.15,0,0,0,.49,0s-.25-.25-.25-.25Z" transform="translate(-375.26 -378.73)"/><path class="cls-2" d="M403.58,401.71a.88.88,0,0,0-.35-.1,1.25,1.25,0,0,0-.37.23,2,2,0,0,0,.22.27,2.77,2.77,0,0,0,.49,0s-.24-.25-.24-.25Z" transform="translate(-375.26 -378.73)"/><path class="cls-2" d="M403.53,402.64a.72.72,0,0,0-.36-.13c-.1,0-.37.3-.37.3a2.69,2.69,0,0,0,.22.36,2.09,2.09,0,0,0,.49.05s-.24-.33-.24-.33Z" transform="translate(-375.26 -378.73)"/><path class="cls-2" d="M406.66,401.89a1.06,1.06,0,0,0-.39-.06,1.25,1.25,0,0,0-.37.23,2,2,0,0,0,.22.27,2.77,2.77,0,0,0,.49,0s-.24-.25-.24-.25Z" transform="translate(-375.26 -378.73)"/><path class="cls-2" d="M406.68,401.44a.91.91,0,0,0-.35-.09,1.35,1.35,0,0,0-.38.22,2.23,2.23,0,0,0,.23.27,2.77,2.77,0,0,0,.49,0s-.25-.25-.25-.25Z" transform="translate(-375.26 -378.73)"/><path class="cls-2" d="M406.83,400.25a.92.92,0,0,0-.36-.1,1.4,1.4,0,0,0-.37.23,1.58,1.58,0,0,0,.23.27,4.15,4.15,0,0,0,.49,0s-.25-.25-.25-.25Z" transform="translate(-375.26 -378.73)"/><path class="cls-2" d="M406.85,399.72a.91.91,0,0,0-.31-.09,1.19,1.19,0,0,0-.32.2,1.63,1.63,0,0,0,.19.23,2.22,2.22,0,0,0,.43,0s-.21-.22-.21-.22Z" transform="translate(-375.26 -378.73)"/><path class="cls-2" d="M408.1,400.18a.64.64,0,0,0-.3-.08c-.1,0-.33.19-.33.19a1.25,1.25,0,0,0,.2.23,2.06,2.06,0,0,0,.42,0s-.21-.22-.21-.22Z" transform="translate(-375.26 -378.73)"/><path class="cls-2" d="M406.75,400.8a.91.91,0,0,0-.36-.09,1.42,1.42,0,0,0-.37.22,1.58,1.58,0,0,0,.23.27,2.77,2.77,0,0,0,.49,0s-.25-.25-.25-.25Z" transform="translate(-375.26 -378.73)"/><path class="cls-2" d="M406.62,403a.93.93,0,0,0-.35-.1,1.27,1.27,0,0,0-.37.22,1.54,1.54,0,0,0,.22.27,2.77,2.77,0,0,0,.49,0s-.24-.25-.24-.25Z" transform="translate(-375.26 -378.73)"/><path class="cls-2" d="M406.62,402.37c-.1-.05-.25-.14-.35-.12s-.38.3-.38.3a2.29,2.29,0,0,0,.23.35,2.09,2.09,0,0,0,.49.05s-.24-.33-.24-.33Z" transform="translate(-375.26 -378.73)"/><path class="cls-2" d="M408.11,401.2c-.1-.05-.25-.14-.35-.12s-.38.3-.38.3a1.72,1.72,0,0,0,.23.35,2.09,2.09,0,0,0,.49,0s-.25-.33-.25-.33Z" transform="translate(-375.26 -378.73)"/><path class="cls-2" d="M408.1,400.65a.84.84,0,0,0-.35-.13c-.11,0-.37.3-.37.3a2.69,2.69,0,0,0,.22.36,2.09,2.09,0,0,0,.49.05s-.24-.33-.24-.33Z" transform="translate(-375.26 -378.73)"/><path class="cls-2" d="M409.61,400.29a.79.79,0,0,0-.3-.08,1.31,1.31,0,0,0-.33.19,1.67,1.67,0,0,0,.2.24,3.07,3.07,0,0,0,.42,0s-.21-.22-.21-.22Z" transform="translate(-375.26 -378.73)"/><path class="cls-2" d="M411.72,400a.79.79,0,0,0-.3-.08,1.21,1.21,0,0,0-.32.19,2.42,2.42,0,0,0,.19.24,3.22,3.22,0,0,0,.43,0s-.22-.22-.22-.22Z" transform="translate(-375.26 -378.73)"/><path class="cls-2" d="M412.24,400.08a.79.79,0,0,0-.31-.08,1.21,1.21,0,0,0-.32.19,1.67,1.67,0,0,0,.2.24,3.07,3.07,0,0,0,.42,0s-.21-.22-.21-.22Z" transform="translate(-375.26 -378.73)"/><path class="cls-2" d="M411.27,403.39a.92.92,0,0,0-.36-.1,1.39,1.39,0,0,0-.39.24,1.72,1.72,0,0,0,.24.28,2.89,2.89,0,0,0,.5,0s-.25-.26-.25-.26Z" transform="translate(-375.26 -378.73)"/><path class="cls-2" d="M411.87,403.44a.78.78,0,0,0-.36-.1,1.42,1.42,0,0,0-.39.23,1.72,1.72,0,0,0,.24.29,2.89,2.89,0,0,0,.5,0s-.25-.27-.25-.27Z" transform="translate(-375.26 -378.73)"/><path class="cls-2" d="M412.84,401.31a.84.84,0,0,0-.31-.08,1.19,1.19,0,0,0-.32.2,1.25,1.25,0,0,0,.2.23,3.07,3.07,0,0,0,.42,0s-.21-.21-.21-.21Z" transform="translate(-375.26 -378.73)"/><path class="cls-2" d="M409.62,401.31c-.1-.05-.25-.14-.35-.12s-.38.3-.38.3a1.72,1.72,0,0,0,.23.35,2.09,2.09,0,0,0,.49.05s-.24-.33-.24-.33Z" transform="translate(-375.26 -378.73)"/><path class="cls-2" d="M409.61,400.76c-.1-.05-.25-.14-.35-.12s-.37.3-.37.3a2.15,2.15,0,0,0,.22.35,2.09,2.09,0,0,0,.49,0s-.24-.33-.24-.33Z" transform="translate(-375.26 -378.73)"/><path class="cls-2" d="M411.1,400.33a.7.7,0,0,0-.36-.12c-.1,0-.37.3-.37.3a2.15,2.15,0,0,0,.22.35,2.23,2.23,0,0,0,.5.05,2.39,2.39,0,0,0-.25-.33Z" transform="translate(-375.26 -378.73)"/><path class="cls-2" d="M412.85,400.72c-.1-.05-.25-.14-.35-.12s-.38.3-.38.3a1.72,1.72,0,0,0,.23.35,2.09,2.09,0,0,0,.49.05s-.25-.33-.25-.33Z" transform="translate(-375.26 -378.73)"/><path class="cls-2" d="M412.38,402.92a.75.75,0,0,0-.35-.13c-.1,0-.37.3-.37.3a2.69,2.69,0,0,0,.22.36,2.09,2.09,0,0,0,.49.05s-.24-.33-.24-.33Z" transform="translate(-375.26 -378.73)"/><path class="cls-2" d="M410.82,402.77a.64.64,0,0,0-.3-.08c-.1,0-.33.19-.33.19a1.25,1.25,0,0,0,.2.23,2.06,2.06,0,0,0,.42,0s-.21-.22-.21-.22Z" transform="translate(-375.26 -378.73)"/><path class="cls-2" d="M410.83,402.17a.81.81,0,0,0-.35-.12c-.11,0-.38.3-.38.3a2.07,2.07,0,0,0,.23.36,2.81,2.81,0,0,0,.49.05s-.25-.34-.25-.34Z" transform="translate(-375.26 -378.73)"/><path class="cls-2" d="M409.44,403.2a.65.65,0,0,0-.35-.13c-.1,0-.37.3-.37.3a2.69,2.69,0,0,0,.22.36,2.09,2.09,0,0,0,.49,0s-.24-.33-.24-.33Z" transform="translate(-375.26 -378.73)"/><path class="cls-2" d="M409.44,402.65a.72.72,0,0,0-.36-.13c-.1,0-.37.3-.37.3a2.69,2.69,0,0,0,.22.36,2.23,2.23,0,0,0,.5.05,2.39,2.39,0,0,0-.25-.33Z" transform="translate(-375.26 -378.73)"/><path class="cls-2" d="M404.38,401.06a1.22,1.22,0,0,0-.47-.07,1.9,1.9,0,0,0-.44.27,2.18,2.18,0,0,0,.27.32,4,4,0,0,0,.58.05c.05,0-.29-.3-.29-.3Z" transform="translate(-375.26 -378.73)"/><path class="cls-2" d="M404.4,400.53a1,1,0,0,0-.42-.11,1.63,1.63,0,0,0-.44.26,1.69,1.69,0,0,0,.27.32,3,3,0,0,0,.58.05c.05,0-.29-.3-.29-.3Z" transform="translate(-375.26 -378.73)"/><path class="cls-2" d="M398.16,401.67a1,1,0,0,0-.39-.05c-.11,0-.38.22-.38.22a2.23,2.23,0,0,0,.23.27,2.77,2.77,0,0,0,.49,0s-.25-.25-.25-.25Z" transform="translate(-375.26 -378.73)"/><path class="cls-2" d="M398.17,401.22a.82.82,0,0,0-.35-.09,1.42,1.42,0,0,0-.37.22,2,2,0,0,0,.22.27,3,3,0,0,0,.5,0s-.25-.25-.25-.25Z" transform="translate(-375.26 -378.73)"/><path class="cls-2" d="M394.7,399.93a.93.93,0,0,0-.35-.1,1.27,1.27,0,0,0-.37.22,2,2,0,0,0,.22.28,4.15,4.15,0,0,0,.49,0s-.24-.25-.24-.25Z" transform="translate(-375.26 -378.73)"/><path class="cls-2" d="M397.09,401.65a1,1,0,0,0-.35-.1,1.4,1.4,0,0,0-.37.23,2,2,0,0,0,.22.27,2.93,2.93,0,0,0,.49,0s-.24-.25-.24-.25Z" transform="translate(-375.26 -378.73)"/><path class="cls-2" d="M400.05,399.69a1.15,1.15,0,0,0-.35-.1,1.25,1.25,0,0,0-.37.23,2,2,0,0,0,.22.27,2.77,2.77,0,0,0,.49,0s-.24-.25-.24-.25Z" transform="translate(-375.26 -378.73)"/><path class="cls-2" d="M399.69,402a.93.93,0,0,0-.35-.1,1.33,1.33,0,0,0-.38.23,2.23,2.23,0,0,0,.23.27,2.77,2.77,0,0,0,.49,0s-.25-.26-.25-.26Z" transform="translate(-375.26 -378.73)"/><path class="cls-2" d="M400.68,401.42a1,1,0,0,0-.43,0c-.11,0-.25.25-.25.25a1.11,1.11,0,0,0,.14.3,3.73,3.73,0,0,0,.57,0s-.2-.28-.2-.28Z" transform="translate(-375.26 -378.73)"/><path class="cls-2" d="M401.26,401.46a1.25,1.25,0,0,0-.43,0c-.11,0-.25.25-.25.25a1.11,1.11,0,0,0,.14.3s.53,0,.57.05-.2-.29-.2-.29Z" transform="translate(-375.26 -378.73)"/><path class="cls-2" d="M401.85,401.49a1.08,1.08,0,0,0-.44,0c-.1,0-.25.25-.25.25s.09.28.15.31a3.73,3.73,0,0,0,.57,0s-.2-.28-.2-.28Z" transform="translate(-375.26 -378.73)"/><path class="cls-2" d="M405,402.84a1,1,0,0,0-.43,0c-.11,0-.25.25-.25.25a1.11,1.11,0,0,0,.14.3,3.86,3.86,0,0,0,.58,0s-.21-.28-.21-.28Z" transform="translate(-375.26 -378.73)"/><path class="cls-2" d="M405.55,402.88a1,1,0,0,0-.43,0c-.11,0-.25.25-.25.25a1.11,1.11,0,0,0,.14.3c.05,0,.53,0,.57,0s-.2-.29-.2-.29Z" transform="translate(-375.26 -378.73)"/><path class="cls-2" d="M406.1,402.91a1.08,1.08,0,0,0-.44,0c-.1,0-.25.25-.25.25s.09.28.15.31a3.73,3.73,0,0,0,.57,0s-.2-.28-.2-.28Z" transform="translate(-375.26 -378.73)"/><path class="cls-2" d="M408.37,401.86a1.25,1.25,0,0,0-.43,0c-.11,0-.25.25-.25.25a1.31,1.31,0,0,0,.14.31,3.73,3.73,0,0,0,.57,0s-.2-.28-.2-.28Z" transform="translate(-375.26 -378.73)"/><path class="cls-2" d="M409,401.91a1.08,1.08,0,0,0-.44,0c-.1,0-.25.25-.25.25s.09.28.15.31a3.73,3.73,0,0,0,.57,0s-.2-.28-.2-.28Z" transform="translate(-375.26 -378.73)"/><path class="cls-2" d="M411.51,401.59a1.08,1.08,0,0,0-.44,0c-.1,0-.24.25-.24.25s.08.27.14.3a3.73,3.73,0,0,0,.57,0s-.2-.28-.2-.28Z" transform="translate(-375.26 -378.73)"/><path class="cls-2" d="M412.09,401.63a1.08,1.08,0,0,0-.44,0c-.1,0-.25.25-.25.25a1.11,1.11,0,0,0,.14.3c.06,0,.54,0,.58,0s-.2-.29-.2-.29Z" transform="translate(-375.26 -378.73)"/><path class="cls-2" d="M409.49,401.93a1.23,1.23,0,0,0-.43,0c-.11,0-.25.25-.25.25a1.11,1.11,0,0,0,.14.3,2.9,2.9,0,0,0,.58.05s-.21-.29-.21-.29Z" transform="translate(-375.26 -378.73)"/><path class="cls-2" d="M408.74,399.55a1.22,1.22,0,0,0-.43,0c-.1,0-.25.25-.25.25a1.11,1.11,0,0,0,.14.3c.05,0,.54,0,.58.05s-.21-.29-.21-.29Z" transform="translate(-375.26 -378.73)"/><path class="cls-2" d="M409.32,399.59a1.25,1.25,0,0,0-.43,0c-.11,0-.25.25-.25.25a1.11,1.11,0,0,0,.14.3,2.81,2.81,0,0,0,.57.05s-.2-.29-.2-.29Z" transform="translate(-375.26 -378.73)"/><path class="cls-2" d="M409.87,399.62a1.08,1.08,0,0,0-.44,0c-.1,0-.24.26-.24.26a1.11,1.11,0,0,0,.14.3,3.73,3.73,0,0,0,.57,0s-.2-.28-.2-.28Z" transform="translate(-375.26 -378.73)"/><path class="cls-2" d="M396.12,398.73a.82.82,0,0,0-.35-.09c-.1,0-.37.22-.37.22a2,2,0,0,0,.22.27,2.93,2.93,0,0,0,.49,0s-.24-.25-.24-.25Z" transform="translate(-375.26 -378.73)"/><path class="cls-2" d="M396.67,398.76a1.14,1.14,0,0,0-.36-.1,1.4,1.4,0,0,0-.37.23,1.58,1.58,0,0,0,.23.27,2.77,2.77,0,0,0,.49,0s-.25-.25-.25-.25Z" transform="translate(-375.26 -378.73)"/><path class="cls-2" d="M397.22,398.8a.91.91,0,0,0-.36-.09c-.1,0-.37.22-.37.22a2.23,2.23,0,0,0,.23.27,2.77,2.77,0,0,0,.49,0S397,399,397,399Z" transform="translate(-375.26 -378.73)"/><path class="cls-2" d="M399.14,399a.92.92,0,0,0-.36-.1,1.4,1.4,0,0,0-.37.23,1.58,1.58,0,0,0,.23.27c.05,0,.45,0,.49,0s-.25-.26-.25-.26Z" transform="translate(-375.26 -378.73)"/><path class="cls-2" d="M399.69,399.05a.93.93,0,0,0-.35-.1,1.33,1.33,0,0,0-.38.23,2.23,2.23,0,0,0,.23.27,2.77,2.77,0,0,0,.49,0s-.25-.26-.25-.26Z" transform="translate(-375.26 -378.73)"/><path class="cls-2" d="M397.69,399a.78.78,0,0,0-.35-.1,1.27,1.27,0,0,0-.37.22,1.54,1.54,0,0,0,.22.27,2.77,2.77,0,0,0,.49,0s-.24-.25-.24-.25Z" transform="translate(-375.26 -378.73)"/><path class="cls-2" d="M397.69,399.4a.91.91,0,0,0-.35-.09,1.27,1.27,0,0,0-.37.22,2,2,0,0,0,.22.27,2.77,2.77,0,0,0,.49,0s-.24-.25-.24-.25Z" transform="translate(-375.26 -378.73)"/><path class="cls-2" d="M396.49,399.87a.91.91,0,0,0-.36-.09,1.42,1.42,0,0,0-.37.22,1.58,1.58,0,0,0,.23.27,2.77,2.77,0,0,0,.49,0s-.25-.25-.25-.25Z" transform="translate(-375.26 -378.73)"/><path class="cls-2" d="M397,399.93a.93.93,0,0,0-.35-.1,1.35,1.35,0,0,0-.38.22,2.21,2.21,0,0,0,.23.28,4.15,4.15,0,0,0,.49,0s-.25-.25-.25-.25Z" transform="translate(-375.26 -378.73)"/><path class="cls-2" d="M396.12,402.16a.73.73,0,0,0-.35-.12c-.1,0-.37.29-.37.29a2.67,2.67,0,0,0,.22.34,4.28,4.28,0,0,0,.49.05s-.24-.32-.24-.32Z" transform="translate(-375.26 -378.73)"/><path class="cls-2" d="M396.57,402.16a.81.81,0,0,0-.36-.12c-.1,0-.37.28-.37.28a2.68,2.68,0,0,0,.22.35,3,3,0,0,0,.5,0s-.25-.31-.25-.31Z" transform="translate(-375.26 -378.73)"/><path class="cls-2" d="M398.55,402.3a.73.73,0,0,0-.35-.12c-.1,0-.37.28-.37.28a2.67,2.67,0,0,0,.22.34,2.77,2.77,0,0,0,.49,0s-.24-.31-.24-.31Z" transform="translate(-375.26 -378.73)"/><path class="cls-2" d="M399,402.29a.69.69,0,0,0-.36-.11c-.1,0-.37.28-.37.28a2.67,2.67,0,0,0,.22.34,2.85,2.85,0,0,0,.49,0s-.24-.31-.24-.31Z" transform="translate(-375.26 -378.73)"/><path class="cls-2" d="M397.58,400a.93.93,0,0,0-.35-.1,1.33,1.33,0,0,0-.38.23,2.23,2.23,0,0,0,.23.27,4.22,4.22,0,0,0,.49,0s-.24-.26-.24-.26Z" transform="translate(-375.26 -378.73)"/><path class="cls-2" d="M394,398.56a.91.91,0,0,0-.36-.06.26.26,0,1,0-.1.5,2.67,2.67,0,0,0,.49,0s-.27-.23-.27-.23Z" transform="translate(-375.26 -378.73)"/><path class="cls-2" d="M394.48,398.59a.88.88,0,0,0-.36-.06,1.44,1.44,0,0,0-.35.25,2,2,0,0,0,.25.25,2.67,2.67,0,0,0,.49,0s-.26-.23-.26-.23Z" transform="translate(-375.26 -378.73)"/><path class="cls-2" d="M394.9,399.31a.72.72,0,0,0-.35-.11c-.1,0-.37.26-.37.26a2,2,0,0,0,.22.3.81.81,0,0,0,.37.05c.07,0-.12-.29-.12-.29Z" transform="translate(-375.26 -378.73)"/><path class="cls-2" d="M393.11,400.87a.78.78,0,0,0-.35-.1c-.11,0-.37.27-.37.27a2.22,2.22,0,0,0,.23.32,2.77,2.77,0,0,0,.49,0s-.25-.3-.25-.3Z" transform="translate(-375.26 -378.73)"/><path class="cls-2" d="M393.11,401.39a.78.78,0,0,0-.35-.1c-.11,0-.37.27-.37.27a2.22,2.22,0,0,0,.23.32,2.74,2.74,0,0,0,.49,0s-.25-.29-.25-.29Z" transform="translate(-375.26 -378.73)"/></svg>